# Blender v2.92.0 OBJ File: ''
# www.blender.org
mtllib cadeira2.mtl
o Cubo.002
v 0.041493 0.454431 0.022934
v 0.026842 0.454431 0.022934
v 0.041493 0.454431 0.389213
v 0.026842 0.454431 0.389213
v 0.041493 0.088152 0.022934
v 0.026842 0.088152 0.022934
v 0.041493 0.088152 0.389213
v 0.026842 0.088152 0.389213
v 0.040357 0.431887 0.331395
v 0.033558 0.431887 0.338194
v 0.033558 -0.521196 0.338194
v 0.040357 -0.521196 0.331395
v 0.033558 0.431887 0.375610
v 0.040622 0.431887 0.382674
v 0.040622 -0.521196 0.382674
v 0.033558 -0.521196 0.375610
v 0.078740 0.431887 0.382674
v 0.084837 0.431887 0.376577
v 0.084837 -0.521196 0.376577
v 0.078740 -0.521196 0.382674
v 0.084837 0.431887 0.337144
v 0.079088 0.431887 0.331395
v 0.079088 -0.521196 0.331395
v 0.084837 -0.521196 0.337144
v 0.040357 0.428592 0.032032
v 0.033558 0.428592 0.038831
v 0.033558 -0.520184 0.038831
v 0.040357 -0.520184 0.032032
v 0.033558 0.428592 0.076248
v 0.040622 0.428592 0.083311
v 0.040622 -0.520184 0.083311
v 0.033558 -0.520184 0.076248
v 0.078740 0.428592 0.083312
v 0.084837 0.428592 0.077214
v 0.084837 -0.520184 0.077214
v 0.078740 -0.520184 0.083312
v 0.084837 0.428592 0.037781
v 0.079088 0.428592 0.032032
v 0.079088 -0.520184 0.032032
v 0.084837 -0.520184 0.037781
v -0.324463 -0.059971 0.032032
v -0.331262 -0.059971 0.038831
v -0.331262 -0.499505 0.038831
v -0.324463 -0.499505 0.032032
v -0.331262 -0.059971 0.076248
v -0.324198 -0.059971 0.083311
v -0.324198 -0.499505 0.083311
v -0.331262 -0.499505 0.076248
v -0.286080 -0.059971 0.083311
v -0.279983 -0.059971 0.077214
v -0.279983 -0.499505 0.077214
v -0.286080 -0.499505 0.083311
v -0.279983 -0.059971 0.037781
v -0.285732 -0.059971 0.032032
v -0.285732 -0.499505 0.032032
v -0.279983 -0.499505 0.037781
v -0.324463 -0.059971 0.333484
v -0.331262 -0.059971 0.340283
v -0.331262 -0.499505 0.340283
v -0.324463 -0.499505 0.333484
v -0.331262 -0.059971 0.377700
v -0.324198 -0.059971 0.384763
v -0.324198 -0.499505 0.384763
v -0.331262 -0.499505 0.377700
v -0.286080 -0.059971 0.384763
v -0.279983 -0.059971 0.378666
v -0.279983 -0.499505 0.378666
v -0.286080 -0.499505 0.384763
v -0.279983 -0.059971 0.339233
v -0.285732 -0.059971 0.333484
v -0.285732 -0.499505 0.333484
v -0.279983 -0.499505 0.339233
v 0.064880 -0.064431 0.011134
v 0.064880 -0.049780 0.011134
v 0.064880 -0.064431 0.401014
v 0.064880 -0.049780 0.401014
v -0.374655 -0.064431 0.011134
v -0.374655 -0.049780 0.011134
v -0.374655 -0.064431 0.401014
v -0.374655 -0.049780 0.401014
vt 0.375000 0.000000
vt 0.625000 0.000000
vt 0.625000 0.250000
vt 0.375000 0.250000
vt 0.625000 0.500000
vt 0.375000 0.500000
vt 0.625000 0.750000
vt 0.375000 0.750000
vt 0.625000 1.000000
vt 0.375000 1.000000
vt 0.125000 0.500000
vt 0.125000 0.750000
vt 0.875000 0.500000
vt 0.875000 0.750000
vt 0.000000 0.000000
vt 0.000000 0.000000
vt 0.000000 0.000000
vt 0.000000 0.000000
vt 0.000000 0.000000
vt 0.000000 0.000000
vt 0.000000 0.000000
vt 0.000000 0.000000
vt 0.000000 0.000000
vt 0.000000 0.000000
vt 0.000000 0.000000
vt 0.000000 0.000000
vt 0.000000 0.000000
vt 0.000000 0.000000
vt 0.000000 0.000000
vt 0.000000 0.000000
vt 0.000000 0.000000
vt 0.000000 0.000000
vt 0.000000 0.000000
vt 0.000000 0.000000
vt 0.000000 0.000000
vt 0.000000 0.000000
vt 0.000000 0.000000
vt 0.000000 0.000000
vt 0.000000 0.000000
vt 0.000000 0.000000
vt 0.000000 0.000000
vt 0.000000 0.000000
vt 0.000000 0.000000
vt 0.000000 0.000000
vt 0.000000 0.000000
vt 0.000000 0.000000
vt 0.000000 0.000000
vt 0.000000 0.000000
vt 0.000000 0.000000
vt 0.000000 0.000000
vt 0.000000 0.000000
vt 0.000000 0.000000
vt 0.000000 0.000000
vt 0.000000 0.000000
vt 0.000000 0.000000
vt 0.000000 0.000000
vt 0.000000 0.000000
vt 0.000000 0.000000
vt 0.000000 0.000000
vt 0.000000 0.000000
vt 0.000000 0.000000
vt 0.000000 0.000000
vt 0.000000 0.000000
vt 0.000000 0.000000
vt 0.000000 0.000000
vt 0.000000 0.000000
vt 0.000000 0.000000
vt 0.000000 0.000000
vt 0.000000 0.000000
vt 0.000000 0.000000
vt 0.000000 0.000000
vt 0.000000 0.000000
vt 0.000000 0.000000
vt 0.000000 0.000000
vt 0.000000 0.000000
vt 0.000000 0.000000
vt 0.000000 0.000000
vt 0.000000 0.000000
vt 0.375000 0.000000
vt 0.625000 0.000000
vt 0.625000 0.250000
vt 0.375000 0.250000
vt 0.625000 0.500000
vt 0.375000 0.500000
vt 0.625000 0.750000
vt 0.375000 0.750000
vt 0.625000 1.000000
vt 0.375000 1.000000
vt 0.125000 0.500000
vt 0.125000 0.750000
vt 0.875000 0.500000
vt 0.875000 0.750000
vn 0.0000 1.0000 0.0000
vn 0.0000 0.0000 1.0000
vn 0.0000 -1.0000 0.0000
vn 0.0000 0.0000 -1.0000
vn 1.0000 -0.0000 0.0000
vn -1.0000 0.0000 -0.0000
vn -0.7071 0.0000 -0.7071
vn -0.7071 0.0000 0.7071
vn 0.7071 -0.0000 0.7071
vn 0.7071 -0.0000 -0.7071
usemtl Material
s off
f 1/1/1 2/2/1 4/3/1 3/4/1
f 3/4/2 4/3/2 8/5/2 7/6/2
f 7/6/3 8/5/3 6/7/3 5/8/3
f 5/8/4 6/7/4 2/9/4 1/10/4
f 3/11/5 7/6/5 5/8/5 1/12/5
f 8/5/6 4/13/6 2/14/6 6/7/6
f 19/15/3 20/16/3 15/17/3 16/18/3 11/19/3 12/20/3 23/21/3 24/22/3
f 13/23/1 14/24/1 17/25/1 18/26/1 21/27/1 22/28/1 9/29/1 10/30/1
f 9/29/7 12/20/7 11/19/7 10/30/7
f 12/20/4 9/29/4 22/28/4 23/21/4
f 13/23/8 16/18/8 15/17/8 14/24/8
f 16/18/6 13/23/6 10/30/6 11/19/6
f 17/25/9 20/16/9 19/15/9 18/26/9
f 20/16/2 17/25/2 14/24/2 15/17/2
f 23/21/10 22/28/10 21/27/10 24/22/10
f 24/22/5 21/27/5 18/26/5 19/15/5
usemtl Material.001
f 35/31/3 36/32/3 31/33/3 32/34/3 27/35/3 28/36/3 39/37/3 40/38/3
f 29/39/1 30/40/1 33/41/1 34/42/1 37/43/1 38/44/1 25/45/1 26/46/1
f 25/45/7 28/36/7 27/35/7 26/46/7
f 28/36/4 25/45/4 38/44/4 39/37/4
f 29/39/8 32/34/8 31/33/8 30/40/8
f 32/34/6 29/39/6 26/46/6 27/35/6
f 33/41/9 36/32/9 35/31/9 34/42/9
f 36/32/2 33/41/2 30/40/2 31/33/2
f 39/37/10 38/44/10 37/43/10 40/38/10
f 40/38/5 37/43/5 34/42/5 35/31/5
usemtl Material.002
f 51/47/3 52/48/3 47/49/3 48/50/3 43/51/3 44/52/3 55/53/3 56/54/3
f 45/55/1 46/56/1 49/57/1 50/58/1 53/59/1 54/60/1 41/61/1 42/62/1
f 41/61/7 44/52/7 43/51/7 42/62/7
f 44/52/4 41/61/4 54/60/4 55/53/4
f 45/55/8 48/50/8 47/49/8 46/56/8
f 48/50/6 45/55/6 42/62/6 43/51/6
f 49/57/9 52/48/9 51/47/9 50/58/9
f 52/48/2 49/57/2 46/56/2 47/49/2
f 55/53/10 54/60/10 53/59/10 56/54/10
f 56/54/5 53/59/5 50/58/5 51/47/5
usemtl Material.003
f 67/63/3 68/64/3 63/65/3 64/66/3 59/67/3 60/68/3 71/69/3 72/70/3
f 61/71/1 62/72/1 65/73/1 66/74/1 69/75/1 70/76/1 57/77/1 58/78/1
f 57/77/7 60/68/7 59/67/7 58/78/7
f 60/68/4 57/77/4 70/76/4 71/69/4
f 61/71/8 64/66/8 63/65/8 62/72/8
f 64/66/6 61/71/6 58/78/6 59/67/6
f 65/73/9 68/64/9 67/63/9 66/74/9
f 68/64/2 65/73/2 62/72/2 63/65/2
f 71/69/10 70/76/10 69/75/10 72/70/10
f 72/70/5 69/75/5 66/74/5 67/63/5
f 73/79/5 74/80/5 76/81/5 75/82/5
f 75/82/2 76/81/2 80/83/2 79/84/2
f 79/84/6 80/83/6 78/85/6 77/86/6
f 77/86/4 78/85/4 74/87/4 73/88/4
f 75/89/3 79/84/3 77/86/3 73/90/3
f 80/83/1 76/91/1 74/92/1 78/85/1
