# Blender v2.92.0 OBJ File: ''
# www.blender.org
mtllib cuboid.mtl
o Cube.001
v 0.000000 2.575958 0.000000
v -1.000000 1.000000 0.000000
v -1.000000 1.000000 1.000000
v 0.000000 1.000000 1.000000
v 1.000000 -1.000000 1.000000
v 1.000000 1.000000 1.000000
v -1.000000 -1.000000 1.000000
v -1.000000 1.000000 -1.000000
v -1.000000 -1.000000 -1.000000
v 1.000000 -1.000000 -1.000000
v 1.000000 1.000000 -1.000000
v 1.000000 1.000000 0.000000
v 0.000000 1.000000 -1.000000
vt 0.750000 0.625000
vt 0.875000 0.625000
vt 0.875000 0.750000
vt 0.750000 0.750000
vt 0.375000 0.750000
vt 0.625000 0.750000
vt 0.625000 0.875000
vt 0.625000 1.000000
vt 0.375000 1.000000
vt 0.375000 0.000000
vt 0.625000 0.000000
vt 0.625000 0.125000
vt 0.625000 0.250000
vt 0.375000 0.250000
vt 0.125000 0.500000
vt 0.375000 0.500000
vt 0.125000 0.750000
vt 0.625000 0.500000
vt 0.625000 0.625000
vt 0.625000 0.375000
vt 0.750000 0.500000
vt 0.875000 0.500000
vn -0.5263 0.6679 0.5263
vn 0.0000 -0.0000 1.0000
vn -1.0000 -0.0000 0.0000
vn 0.0000 -1.0000 -0.0000
vn 1.0000 0.0000 0.0000
vn 0.0000 0.0000 -1.0000
vn 0.5263 0.6679 0.5263
vn 0.5263 0.6679 -0.5263
vn -0.5263 0.6679 -0.5263
usemtl Material.001
s 1
f 1/1/1 2/2/1 3/3/1 4/4/1
f 5/5/2 6/6/2 4/7/2 3/8/2 7/9/2
f 7/10/3 3/11/3 2/12/3 8/13/3 9/14/3
f 9/15/4 10/16/4 5/5/4 7/17/4
f 10/16/5 11/18/5 12/19/5 6/6/5 5/5/5
f 9/14/6 8/13/6 13/20/6 11/18/6 10/16/6
f 12/19/7 1/1/7 4/4/7 6/6/7
f 11/18/8 13/21/8 1/1/8 12/19/8
f 13/21/9 8/22/9 2/2/9 1/1/9
