# Blender v2.92.0 OBJ File: 'quarto.blend'
# www.blender.org
mtllib quad_square.mtl
o another_plane_Plane
v 1.000000 -0.000000 1.000000
v 1.000000 0.000000 -1.000000
v -1.000000 0.000000 -1.000000
v 0.000000 0.000000 -1.000000
v 0.000000 -0.000000 1.000000
v 1.000000 0.000000 0.000000
v -1.000000 0.000000 0.000000
v 0.000000 0.000000 0.000000
vt 0.500000 0.500000
vt 1.000000 0.500000
vt 1.000000 1.000000
vt 0.500000 1.000000
vt 0.000000 0.500000
vt 0.000000 1.000000
vt 0.500000 0.000000
vt 1.000000 0.000000
vn 0.0000 1.0000 0.0000
usemtl None
s 1
f 8/1/1 6/2/1 2/3/1 4/4/1
f 7/5/1 8/1/1 4/4/1 3/6/1
f 7/5/1 5/7/1 8/1/1
f 5/7/1 1/8/1 6/2/1 8/1/1
