# Blender v2.92.0 OBJ File: 'quadro.blend'
# www.blender.org
mtllib quadro.mtl
o Cube
v 0.005000 0.300000 -0.105000
v 0.005000 0.000000 -0.105000
v 0.005000 0.300000 0.105000
v 0.005000 0.000000 0.105000
v -0.005000 0.300000 -0.105000
v -0.005000 0.000000 -0.105000
v -0.005000 0.300000 0.105000
v -0.005000 0.000000 0.105000
v -0.005000 0.000000 -0.092167
v 0.005000 0.300000 -0.092167
v -0.005000 0.300000 -0.092167
v 0.005000 0.000000 -0.092167
v 0.005000 0.289040 -0.105000
v -0.005000 0.289040 0.105000
v 0.005000 0.289040 0.105000
v -0.005000 0.289040 -0.105000
v 0.005000 0.289040 -0.092167
v -0.005000 0.289040 -0.092167
v -0.005000 0.000000 0.091986
v 0.005000 0.300000 0.091986
v -0.005000 0.300000 0.091986
v 0.005000 0.000000 0.091986
v -0.005000 0.289040 0.091986
v 0.005000 0.289040 0.091986
v 0.005000 0.011616 -0.105000
v 0.005000 0.011616 0.105000
v -0.005000 0.011616 -0.105000
v 0.005000 0.011616 -0.092167
v -0.005000 0.011616 -0.092167
v -0.005000 0.011616 0.105000
v 0.005000 0.011616 0.091986
v -0.005000 0.011616 0.091986
v 0.000921 0.289040 -0.092167
v 0.000921 0.289040 0.091986
v 0.000921 0.011616 -0.092167
v 0.000921 0.011616 0.091986
vt 0.647715 0.688019
vt 0.528666 0.561255
vt 0.536236 0.559274
vt 0.647537 0.670423
vt 0.654605 0.667786
vt 0.537993 0.554236
vt 0.423502 0.555124
vt 0.423277 0.559958
vt 0.416357 0.558542
vt 0.415491 0.553945
vt 0.534777 0.440770
vt 0.646288 0.329380
vt 0.648883 0.345857
vt 0.541779 0.442203
vt 0.674606 0.704604
vt 0.309322 0.654401
vt 0.302570 0.650369
vt 0.311581 0.670862
vt 0.285494 0.683179
vt 0.422070 0.441290
vt 0.311266 0.329788
vt 0.311606 0.312957
vt 0.429538 0.439339
vt 0.528619 0.555728
vt 0.534563 0.445891
vt 0.429507 0.445198
vt 0.303650 0.332452
vt 0.283496 0.295585
vt 0.420251 0.446536
vt 0.673809 0.316331
vt 0.656137 0.350107
vt 0.542678 0.447038
vt 0.002889 0.964873
vt 0.000098 0.000098
vt 0.957125 0.033625
vt 0.957125 0.999902
vt 0.999903 0.948191
vt 0.000097 0.948191
vt 0.000097 0.000097
vt 0.999903 0.000097
vn 0.0000 1.0000 0.0000
vn 0.0000 0.0000 1.0000
vn -1.0000 0.0000 0.0000
vn 0.0000 -1.0000 0.0000
vn 1.0000 0.0000 0.0000
vn 0.0000 0.0000 -1.0000
usemtl Material
s off
f 20/1/1 21/2/1 7/3/1 3/4/1
f 15/5/2 3/4/2 7/3/2 14/6/2
f 18/7/3 11/8/3 5/9/3 16/10/3
f 19/11/4 22/12/4 4/13/4 8/14/4
f 24/15/5 20/1/5 3/4/5 15/5/5
f 16/10/6 5/9/6 1/16/6 13/17/6
f 13/17/5 1/16/5 10/18/5 17/19/5
f 6/20/4 2/21/4 12/22/4 9/23/4
f 23/24/3 21/2/3 11/8/3 18/7/3
f 1/16/1 5/9/1 11/8/1 10/18/1
f 32/25/3 23/24/3 18/7/3 29/26/3
f 25/27/5 13/17/5 17/19/5 28/28/5
f 27/29/6 16/10/6 13/17/6 25/27/6
f 31/30/5 24/15/5 15/5/5 26/31/5
f 29/26/3 18/7/3 16/10/3 27/29/3
f 26/31/2 15/5/2 14/6/2 30/32/2
f 28/28/2 17/19/2 33/33/2 35/34/2
f 30/32/3 14/6/3 23/24/3 32/25/3
f 14/6/3 7/3/3 21/2/3 23/24/3
f 17/19/5 10/18/5 20/1/5 24/15/5
f 9/23/4 12/22/4 22/12/4 19/11/4
f 10/18/1 11/8/1 21/2/1 20/1/1
f 8/14/3 30/32/3 32/25/3 19/11/3
f 12/22/5 28/28/5 31/30/5 22/12/5
f 4/13/2 26/31/2 30/32/2 8/14/2
f 9/23/3 29/26/3 27/29/3 6/20/3
f 22/12/5 31/30/5 26/31/5 4/13/5
f 6/20/6 27/29/6 25/27/6 2/21/6
f 2/21/5 25/27/5 28/28/5 12/22/5
f 19/11/3 32/25/3 29/26/3 9/23/3
f 24/15/6 31/30/6 36/35/6 34/36/6
f 17/19/4 24/15/4 34/36/4 33/33/4
f 31/30/1 28/28/1 35/34/1 36/35/1
usemtl Material.001
f 35/37/5 33/38/5 34/39/5 36/40/5
