# Blender v2.92.0 OBJ File: 'quarto.blend'
# www.blender.org
mtllib quarto.mtl
o Plane_Plane.001
v -2.189206 0.000000 1.599804
v 1.339206 0.000000 1.599804
v -2.189206 0.000000 -1.599804
v 1.339206 0.000000 -1.599804
v -2.192778 -0.000000 2.450374
v 1.335633 -0.000000 2.450374
v -4.926048 0.000000 1.599804
v -4.929620 -0.000000 2.450374
v -2.192778 -0.000000 3.100374
v 1.335633 -0.000000 3.100374
v -4.929620 -0.000000 3.100374
v 2.199019 -0.000001 1.582006
v 2.199019 -0.000001 -1.617603
v 2.195447 -0.000001 2.432576
v -2.189206 2.600000 1.599804
v -2.189206 2.600000 -1.599804
v 1.339206 2.600000 -1.599804
v 1.335633 2.599999 2.450374
v -4.926048 2.600000 1.599804
v -4.929620 2.599999 2.450374
v -2.192778 2.599999 3.100374
v 1.335633 2.599999 3.100374
v -4.929620 2.599999 3.100374
v 2.199019 2.599999 1.582006
v 2.199019 2.599999 -1.617603
v 2.195447 2.599998 2.432576
v -2.192778 2.599999 2.450374
v 1.339020 2.599999 1.582006
v -2.189206 2.100000 1.599804
v -2.189206 2.100000 -1.599804
v -4.929620 2.099999 2.450374
v -4.926048 2.100000 1.599804
v 1.335633 2.099999 2.450374
v 1.335633 2.099999 3.100374
v -2.192778 2.099999 3.100374
v -4.929620 2.099999 3.100374
v 2.195447 2.099998 2.432576
v 2.199019 2.099999 -1.617603
v 2.199019 2.099999 1.582006
v 1.536712 2.162641 -1.599804
v -4.926048 0.000000 1.641406
v -4.929620 -0.000000 2.408772
v -4.929620 2.058338 2.408772
v -4.926048 2.058338 1.641406
v 1.377410 -0.000000 2.450374
v 2.153670 -0.000001 2.432576
v 1.377410 2.064739 2.450374
v 2.153670 2.064739 2.432576
v -2.189206 0.800000 1.599804
v 2.195447 0.799999 2.432576
v 2.199019 0.799999 -1.617603
v 1.339206 0.800000 -1.599804
v -2.189206 0.800000 -1.599804
v -4.926048 0.800000 1.599804
v 2.199019 0.799999 1.582006
v -4.926048 0.779169 1.641406
v 2.153670 0.782369 2.432576
v -2.189206 0.784000 1.599804
v 2.195447 0.783999 2.432576
v 2.199019 0.783999 -1.617603
v 1.339206 0.784000 -1.599804
v 2.153670 0.766721 2.432576
v -2.189206 0.784000 -1.599804
v -4.926048 0.784000 1.599804
v 2.199019 0.783999 1.582006
v -4.926048 0.763586 1.641406
v -2.189206 0.000000 -0.383953
v 1.339206 0.000000 -0.383953
v 2.199019 -0.000001 -0.401751
v -2.189206 2.600000 -0.383953
v 2.199019 2.599999 -0.401751
v 1.339135 2.599999 -0.390716
v 2.199019 2.099999 -0.401751
v -2.189206 2.100000 -0.383953
v -2.189206 0.800000 -0.048182
v 2.199019 0.799999 -0.401751
v 2.199019 0.783999 -0.401751
v -2.189206 0.784000 -0.048182
v -2.189206 0.800000 -1.599804
v -2.189206 0.784000 -1.599804
v -2.189206 0.800000 -0.048182
v -2.189206 0.784000 -0.048182
v -2.189206 0.800000 -1.599804
v -2.189206 0.784000 -1.599804
v -2.189206 0.800000 -0.048182
v -2.189206 0.784000 -0.048182
v -1.689206 0.784000 -1.599804
v -1.689206 0.800000 -1.599804
v -1.689206 0.784000 -0.048182
v -1.689206 0.800000 -0.048182
v -2.189206 0.784000 -1.099804
v -2.189206 0.800000 -1.099804
v 1.339206 0.800000 -1.099804
v 1.339206 0.784000 -1.099804
v 2.199019 0.799999 -1.117603
v 1.339206 0.800000 -1.099804
v 2.199019 0.783999 -1.117603
v 1.339206 0.784000 -1.099804
v -1.552259 0.000000 1.599804
v -1.552259 0.000000 -1.599804
v -1.555831 -0.000000 2.450374
v -1.555831 -0.000000 3.100374
v -1.552259 2.600000 -1.599804
v -1.555831 2.599999 3.100374
v -1.555831 2.599999 2.450374
v -1.552302 2.599999 1.595711
v -1.555831 2.099999 3.100374
v -1.536003 2.162641 -1.599804
v -1.552259 0.800000 -1.599804
v -1.552259 0.784000 -1.599804
v -1.552275 2.600000 -0.385509
v -1.552259 0.000000 -0.383953
v -1.552259 0.800000 -1.099804
v -1.552259 0.784000 -1.099804
v -2.189206 1.112000 -1.599804
v -4.926048 1.112000 1.599804
v 2.199019 1.111999 1.582006
v -4.926048 1.086170 1.641406
v -2.189206 1.112000 1.599804
v 2.195447 1.111999 2.432576
v 2.199019 1.111999 -1.617603
v 1.536712 1.007329 -1.599804
v 2.153670 1.090137 2.432576
v -2.189206 1.112000 -0.128767
v 2.199019 1.111999 -0.401751
v -1.536003 1.007329 -1.599804
v 1.521791 2.148066 -1.599804
v -1.521082 2.148066 -1.599804
v -1.521082 1.021903 -1.599804
v 1.521791 1.021903 -1.599804
v 1.521791 2.148066 -1.704594
v -1.521082 2.148066 -1.704594
v -1.521082 1.021903 -1.704594
v 1.521791 1.021903 -1.704594
v 1.377410 -0.000000 2.722389
v 2.153670 -0.000001 2.704590
v 1.377410 2.064739 2.722389
v 2.153670 2.064739 2.704590
v 2.153670 0.782369 2.704590
v 2.153670 0.766721 2.704590
v 2.153670 1.090137 2.704590
v -5.125928 0.000000 1.641406
v -5.129501 -0.000000 2.408772
v -5.129501 2.058338 2.408772
v -5.125928 2.058338 1.641406
v -5.125928 0.779169 1.641406
v -5.125928 0.763586 1.641406
v -5.125928 1.086170 1.641406
v -4.929620 -0.000000 2.450374
v -4.929620 2.599999 2.450374
v -4.929620 2.099999 2.450374
v -2.192778 -0.000000 2.492194
v 1.335633 -0.000000 2.492194
v -4.929620 -0.000000 2.492194
v 1.335633 2.599999 2.492194
v -4.929620 2.599999 2.492194
v -2.192778 2.599999 2.492194
v 1.335633 2.099999 2.492194
v -1.555831 -0.000000 2.492194
v -1.555831 2.599999 2.492194
v -4.929620 -0.000000 2.492194
v -4.929620 2.599999 2.492194
v -4.929620 2.099999 2.492194
vt 1.000000 0.620000
vt 0.230000 1.000000
vt 0.230000 0.620000
vt 0.000000 0.000000
vt 0.230000 0.000000
vt 0.230000 0.000000
vt 0.000000 0.000000
vt 0.000000 0.000000
vt 0.000000 0.000000
vt 0.000000 0.000000
vt 0.230000 0.000000
vt 1.000000 0.000000
vt 1.000000 0.000000
vt 1.000000 0.000000
vt 1.000000 0.620000
vt 0.000000 1.000000
vt 0.000000 0.620000
vt 0.000000 0.620000
vt 0.000000 0.000000
vt 0.000000 0.000000
vt 0.000000 0.000000
vt 1.000000 0.000000
vt 1.000000 0.000000
vt 1.000000 0.000000
vt 0.000000 0.000000
vt 0.000000 0.000000
vt 0.000000 0.000000
vt 1.000000 0.000000
vt 1.000000 0.000000
vt 0.000000 0.000000
vt 0.000000 0.000000
vt 1.000000 0.000000
vt 1.000000 0.620000
vt 1.000000 0.620000
vt 0.000000 0.000000
vt 1.000000 1.000000
vt 1.000000 1.000000
vt 1.000000 1.000000
vt 1.000000 0.000000
vt 0.230000 1.000000
vt 0.230000 1.000000
vt 0.230000 0.000000
vt 0.230000 0.000000
vt 0.000000 0.000000
vt 0.230000 0.000000
vt 1.000000 0.000000
vt 0.000000 0.000000
vt 0.620000 0.620000
vt 0.142600 0.620000
vt 0.000000 0.000000
vt 0.230000 1.000000
vt 0.230000 1.000000
vt 1.000000 0.000000
vt 1.000000 1.000000
vt 1.000000 1.000000
vt 0.000000 0.000000
vt 1.000000 0.620000
vt 0.000000 0.000000
vt 0.000000 0.000000
vt 1.000000 0.000000
vt 1.000000 0.000000
vt 1.000000 0.000000
vt 1.000000 0.000000
vt 0.000000 0.000000
vt 0.000000 0.000000
vt 0.000000 1.000000
vt 0.000000 0.620000
vt 0.000000 0.000000
vt 0.000000 0.000000
vt 0.000000 0.000000
vt 1.000000 0.000000
vt 1.000000 0.000000
vt 1.000000 0.000000
vt 1.000000 0.000000
vt 1.000000 0.000000
vt 1.000000 0.000000
vt 0.000000 0.000000
vt 0.000000 0.000000
vt 0.000000 0.000000
vt 0.000000 0.000000
vt 0.000000 0.000000
vt 1.000000 0.000000
vt 1.000000 0.620000
vt 1.000000 0.620000
vt 1.000000 1.000000
vt 1.000000 1.000000
vt 1.000000 1.000000
vt 1.000000 1.000000
vt 1.000000 0.000000
vt 0.000000 0.000000
vt 0.000000 0.000000
vt 0.000000 0.000000
vt 1.000000 1.000000
vt 0.230000 1.000000
vt 1.000000 1.000000
vt 0.000000 0.620000
vt 0.000000 1.000000
vt 0.000000 0.620000
vt 1.000000 0.000000
vt 1.000000 1.000000
vt 0.000000 0.000000
vt 1.000000 1.000000
vt 0.000000 0.000000
vt 0.000000 0.000000
vt 0.000000 0.000000
vt 0.000000 0.000000
vt 0.000000 0.000000
vt 0.000000 0.000000
vt 0.000000 0.000000
vt 0.000000 0.000000
vt 0.000000 0.000000
vt 1.000000 1.000000
vt 0.230000 1.000000
vt 0.230000 1.000000
vt 1.000000 1.000000
vt 1.000000 1.000000
vt 0.000000 1.000000
vt 0.230000 1.000000
vt 1.000000 1.000000
vt 1.000000 1.000000
vt 0.000000 1.000000
vt 0.000000 1.000000
vt 0.000000 1.000000
vt 0.000000 1.000000
vt 0.000000 0.620000
vt 1.000000 0.000000
vt 1.000000 1.000000
vt 1.000000 1.000000
vt 1.000000 1.000000
vt 0.230000 1.000000
vt 1.000000 1.000000
vt 0.230000 1.000000
vt 0.230000 1.000000
vt 1.000000 0.000000
vt 1.000000 0.000000
vt 1.000000 0.000000
vt 1.000000 0.000000
vt 1.000000 0.000000
vt 1.000000 0.000000
vt 1.000000 0.000000
vt 0.000000 0.000000
vt 0.000000 0.000000
vt 0.000000 0.000000
vt 0.000000 0.000000
vt 0.000000 0.000000
vt 0.000000 0.000000
vt 0.000000 0.000000
vt 0.000000 0.000000
vt 0.000000 0.000000
vt 0.000000 0.000000
vt 1.000000 0.000000
vt 0.230000 0.000000
vt 0.000000 0.000000
vt 1.000000 0.000000
vt 0.000000 0.000000
vt 0.000000 0.000000
vt 0.000000 0.000000
vt 1.000000 0.000000
vt 0.000000 0.000000
vt 0.000000 0.000000
vt 0.000000 0.000000
vt 0.000000 0.000000
vt 0.230000 0.000000
vn 0.0000 1.0000 0.0000
vn 1.0000 0.0000 0.0000
vn 1.0000 0.0000 0.0042
vn -1.0000 0.0000 0.0000
vn 0.0000 0.0000 -1.0000
vn -0.0207 0.0000 -0.9998
vn 0.0000 0.0000 1.0000
vn 0.0207 0.0093 0.9997
vn -1.0000 0.0000 -0.0042
vn 0.0000 -1.0000 0.0000
vn 0.0269 0.0000 0.9996
vn -0.0000 -1.0000 -0.0001
vn 0.3494 0.9370 0.0015
vn 1.0000 0.0042 0.0042
vn -0.0207 -0.0245 -0.9995
vn 0.0207 0.0000 0.9998
vn 0.0207 -0.0197 0.9996
vn -0.0000 1.0000 -0.0002
vn 1.0000 -0.0046 0.0047
vn -0.0229 0.0271 -0.9994
usemtl None
s off
f 68/1/1 100/2/1 112/3/1
f 1/4/1 101/5/1 99/6/1
f 5/7/1 7/8/1 8/9/1
f 8/9/1 9/10/1 5/7/1
f 5/7/1 102/11/1 101/5/1
f 2/12/1 14/13/1 12/14/1
f 68/1/1 12/14/1 69/15/1
f 30/16/2 70/17/2 74/18/2
f 32/19/3 20/20/3 31/21/3
f 34/22/4 18/23/4 33/24/4
f 36/25/5 21/26/5 35/27/5
f 33/24/6 26/28/6 37/29/6
f 29/30/7 19/31/7 32/19/7
f 39/32/4 71/33/4 73/34/4
f 31/21/2 23/35/2 36/25/2
f 40/36/8 25/37/8 17/38/8
f 39/32/9 26/28/9 24/39/9
f 108/40/7 17/38/7 103/41/7
f 35/27/5 104/42/5 107/43/5
f 19/31/10 27/44/10 20/20/10
f 23/35/10 27/44/10 21/26/10
f 105/45/10 22/46/10 104/42/10
f 26/28/10 28/47/10 24/39/10
f 71/33/10 17/38/10 25/37/10
f 103/41/10 72/48/10 111/49/10
f 106/50/10 18/23/10 105/45/10
f 9/10/5 107/43/5 102/11/5
f 126/51/7 128/52/7 108/40/7
f 117/53/9 37/29/9 39/32/9
f 121/54/11 40/36/11 122/55/11
f 8/9/2 36/25/2 11/56/2
f 125/57/4 39/32/4 73/34/4
f 119/58/7 32/19/7 116/59/7
f 14/13/12 45/60/12 46/61/12
f 11/56/5 35/27/5 9/10/5
f 10/62/4 33/24/4 6/63/4
f 116/59/2 44/64/2 118/65/2
f 115/66/2 74/18/2 124/67/2
f 8/9/13 7/8/13 41/68/13 42/69/13
f 8/9/2 43/70/2 31/21/2
f 31/21/14 44/64/14 32/19/14
f 14/13/5 62/71/5 59/72/5
f 37/29/15 47/73/15 33/24/15
f 6/63/5 47/73/5 45/60/5
f 50/74/5 123/75/5 120/76/5
f 64/77/2 56/78/2 66/79/2
f 58/80/7 54/81/7 64/77/7
f 65/82/4 76/83/4 77/84/4
f 60/85/2 51/86/2 95/87/2 97/88/2
f 65/82/9 50/74/9 55/89/9
f 63/90/4 92/91/4 53/92/4
f 4/93/7 110/94/7 100/2/7
f 12/14/9 59/72/9 65/82/9
f 4/93/16 60/85/16 61/95/16
f 12/14/4 77/84/4 69/15/4
f 1/4/7 64/77/7 7/8/7
f 7/8/2 66/79/2 41/68/2
f 67/96/2 63/97/2 78/98/2
f 59/72/5 57/99/5 50/74/5
f 1/4/2 78/98/2 58/80/2
f 69/15/4 60/85/4 13/100/4
f 77/84/4 51/86/4 60/85/4
f 78/98/2 49/101/2 58/80/2
f 124/67/2 29/30/2 119/58/2
f 125/57/4 38/102/4 121/54/4
f 111/49/10 28/47/10 106/50/10
f 24/39/10 72/48/10 71/33/10
f 73/34/4 25/37/4 38/102/4
f 74/18/2 15/103/2 29/30/2
f 4/93/1 69/15/1 13/100/1
f 2/12/1 112/3/1 99/6/1
f 83/104/4 86/105/4 85/106/4
f 89/107/2 88/108/2 90/109/2
f 85/106/1 88/108/1 83/104/1
f 83/104/5 87/110/5 84/111/5
f 84/111/10 89/107/10 86/105/10
f 85/106/7 86/105/7 89/107/7 90/109/7
f 94/112/7 113/113/7 114/114/7
f 61/95/10 114/114/10 110/94/10
f 61/95/2 52/115/2 93/116/2 94/112/2
f 53/117/1 113/113/1 109/118/1
f 98/119/16 97/88/16 95/87/16 96/120/16
f 61/95/10 97/88/10 98/119/10
f 61/95/4 96/120/4 52/115/4
f 52/115/1 95/87/1 51/86/1
f 109/118/1 93/116/1 52/115/1
f 110/94/10 91/121/10 63/97/10
f 114/114/7 92/122/7 91/121/7
f 99/6/1 67/96/1 1/4/1
f 70/17/10 106/50/10 15/103/10
f 100/2/7 63/97/7 3/123/7
f 115/66/7 108/40/7 30/16/7
f 102/11/5 34/22/5 10/62/5
f 15/103/10 105/45/10 27/44/10
f 16/124/10 111/49/10 70/17/10
f 27/44/10 104/42/10 21/26/10
f 107/43/5 22/46/5 34/22/5
f 108/40/7 16/124/7 30/16/7
f 101/5/1 10/62/1 6/63/1
f 99/6/1 6/63/1 2/12/1
f 112/3/1 3/123/1 67/96/1
f 53/117/7 126/51/7 115/66/7
f 76/83/4 121/54/4 51/86/4
f 75/125/2 119/58/2 49/101/2
f 120/76/5 48/126/5 37/29/5
f 53/117/2 124/67/2 75/125/2
f 54/81/2 118/65/2 56/78/2
f 49/101/7 116/59/7 54/81/7
f 55/89/4 125/57/4 76/83/4
f 51/86/17 122/55/17 52/115/17
f 55/89/9 120/76/9 117/53/9
f 52/115/7 126/51/7 109/118/7
f 127/127/4 134/128/4 130/129/4
f 108/40/7 127/127/7 40/36/7
f 122/55/7 129/130/7 126/51/7
f 40/36/7 130/129/7 122/55/7
f 128/52/10 131/131/10 127/127/10
f 130/129/1 133/132/1 129/130/1
f 129/130/2 132/133/2 128/52/2
f 46/61/4 140/134/4 62/71/4
f 45/60/1 136/135/1 46/61/1
f 62/71/4 139/136/4 57/99/4
f 57/99/4 141/137/4 123/75/4
f 47/73/10 138/138/10 137/139/10
f 47/73/2 135/140/2 45/60/2
f 123/75/4 138/138/4 48/126/4
f 43/70/10 145/141/10 44/64/10
f 56/78/7 147/142/7 66/79/7
f 42/69/5 144/143/5 43/70/5
f 66/79/7 142/144/7 41/68/7
f 118/65/7 146/145/7 56/78/7
f 44/64/7 148/146/7 118/65/7
f 42/69/1 142/144/1 143/147/1
f 20/20/7 31/21/7 151/148/7 150/149/7
f 8/9/7 31/21/7 151/148/7 149/150/7
f 33/24/4 155/151/4 18/23/4
f 18/23/10 160/152/10 105/45/10
f 20/20/1 157/153/1 27/44/1
f 6/63/4 158/154/4 33/24/4
f 5/7/10 154/155/10 8/9/10
f 151/148/2 161/156/2 149/150/2
f 27/44/1 160/152/1 105/45/1
f 151/148/4 162/157/4 150/149/4
f 101/5/1 153/158/1 6/63/1
f 101/5/10 152/159/10 5/7/10
f 68/1/1 4/93/1 100/2/1
f 1/4/1 5/7/1 101/5/1
f 5/7/1 1/4/1 7/8/1
f 8/9/1 11/56/1 9/10/1
f 5/7/1 9/10/1 102/11/1
f 2/12/1 6/63/1 14/13/1
f 68/1/1 2/12/1 12/14/1
f 30/16/2 16/124/2 70/17/2
f 32/19/3 19/31/3 20/20/3
f 34/22/4 22/46/4 18/23/4
f 36/25/5 23/35/5 21/26/5
f 33/24/6 18/23/6 26/28/6
f 29/30/7 15/103/7 19/31/7
f 39/32/4 24/39/4 71/33/4
f 31/21/2 20/20/2 23/35/2
f 40/36/11 38/102/11 25/37/11
f 39/32/9 37/29/9 26/28/9
f 108/40/7 40/36/7 17/38/7
f 35/27/5 21/26/5 104/42/5
f 19/31/10 15/103/10 27/44/10
f 23/35/10 20/20/10 27/44/10
f 105/45/10 18/23/10 22/46/10
f 26/28/10 18/23/10 28/47/10
f 71/33/10 72/48/10 17/38/10
f 103/41/10 17/38/10 72/48/10
f 106/50/10 28/47/10 18/23/10
f 9/10/5 35/27/5 107/43/5
f 126/51/7 129/130/7 128/52/7
f 117/53/9 120/76/9 37/29/9
f 121/54/11 38/102/11 40/36/11
f 8/9/2 31/21/2 36/25/2
f 125/57/4 117/53/4 39/32/4
f 119/58/7 29/30/7 32/19/7
f 14/13/18 6/63/18 45/60/18
f 11/56/5 36/25/5 35/27/5
f 10/62/4 34/22/4 33/24/4
f 116/59/2 32/19/2 44/64/2
f 115/66/2 30/16/2 74/18/2
f 8/9/2 42/69/2 43/70/2
f 31/21/19 43/70/19 44/64/19
f 14/13/5 46/61/5 62/71/5
f 37/29/20 48/126/20 47/73/20
f 6/63/5 33/24/5 47/73/5
f 50/74/5 57/99/5 123/75/5
f 64/77/2 54/81/2 56/78/2
f 58/80/7 49/101/7 54/81/7
f 65/82/4 55/89/4 76/83/4
f 65/82/9 59/72/9 50/74/9
f 63/90/4 91/160/4 92/91/4
f 4/93/7 61/95/7 110/94/7
f 12/14/9 14/13/9 59/72/9
f 4/93/16 13/100/16 60/85/16
f 12/14/4 65/82/4 77/84/4
f 1/4/7 58/80/7 64/77/7
f 7/8/2 64/77/2 66/79/2
f 67/96/2 3/123/2 63/97/2
f 59/72/5 62/71/5 57/99/5
f 1/4/2 67/96/2 78/98/2
f 69/15/4 77/84/4 60/85/4
f 77/84/4 76/83/4 51/86/4
f 78/98/2 75/125/2 49/101/2
f 124/67/2 74/18/2 29/30/2
f 125/57/4 73/34/4 38/102/4
f 111/49/10 72/48/10 28/47/10
f 24/39/10 28/47/10 72/48/10
f 73/34/4 71/33/4 25/37/4
f 74/18/2 70/17/2 15/103/2
f 4/93/1 68/1/1 69/15/1
f 2/12/1 68/1/1 112/3/1
f 83/104/4 84/111/4 86/105/4
f 89/107/2 87/110/2 88/108/2
f 85/106/1 90/109/1 88/108/1
f 83/104/5 88/108/5 87/110/5
f 84/111/10 87/110/10 89/107/10
f 94/112/7 93/116/7 113/113/7
f 61/95/10 94/112/10 114/114/10
f 53/117/1 92/122/1 113/113/1
f 61/95/10 60/85/10 97/88/10
f 61/95/4 98/119/4 96/120/4
f 52/115/1 96/120/1 95/87/1
f 109/118/1 113/113/1 93/116/1
f 110/94/10 114/114/10 91/121/10
f 114/114/7 113/113/7 92/122/7
f 99/6/1 112/3/1 67/96/1
f 70/17/10 111/49/10 106/50/10
f 100/2/7 110/94/7 63/97/7
f 115/66/7 126/51/7 108/40/7
f 102/11/5 107/43/5 34/22/5
f 15/103/10 106/50/10 105/45/10
f 16/124/10 103/41/10 111/49/10
f 27/44/10 105/45/10 104/42/10
f 107/43/5 104/42/5 22/46/5
f 108/40/7 103/41/7 16/124/7
f 101/5/1 102/11/1 10/62/1
f 99/6/1 101/5/1 6/63/1
f 112/3/1 100/2/1 3/123/1
f 53/117/7 109/118/7 126/51/7
f 76/83/4 125/57/4 121/54/4
f 75/125/2 124/67/2 119/58/2
f 120/76/5 123/75/5 48/126/5
f 53/117/2 115/66/2 124/67/2
f 54/81/2 116/59/2 118/65/2
f 49/101/7 119/58/7 116/59/7
f 55/89/4 117/53/4 125/57/4
f 51/86/11 121/54/11 122/55/11
f 55/89/9 50/74/9 120/76/9
f 52/115/7 122/55/7 126/51/7
f 127/127/4 131/131/4 134/128/4
f 108/40/7 128/52/7 127/127/7
f 122/55/7 130/129/7 129/130/7
f 40/36/7 127/127/7 130/129/7
f 128/52/10 132/133/10 131/131/10
f 130/129/1 134/128/1 133/132/1
f 129/130/2 133/132/2 132/133/2
f 46/61/4 136/135/4 140/134/4
f 45/60/1 135/140/1 136/135/1
f 62/71/4 140/134/4 139/136/4
f 57/99/4 139/136/4 141/137/4
f 47/73/10 48/126/10 138/138/10
f 47/73/2 137/139/2 135/140/2
f 123/75/4 141/137/4 138/138/4
f 43/70/10 144/143/10 145/141/10
f 56/78/7 146/145/7 147/142/7
f 42/69/5 143/147/5 144/143/5
f 66/79/7 147/142/7 142/144/7
f 118/65/7 148/146/7 146/145/7
f 44/64/7 145/141/7 148/146/7
f 42/69/1 41/68/1 142/144/1
f 33/24/4 158/154/4 155/151/4
f 18/23/10 155/151/10 160/152/10
f 20/20/1 156/161/1 157/153/1
f 6/63/4 153/158/4 158/154/4
f 5/7/10 152/159/10 154/155/10
f 151/148/2 163/162/2 161/156/2
f 27/44/1 157/153/1 160/152/1
f 151/148/4 163/162/4 162/157/4
f 101/5/1 159/163/1 153/158/1
f 101/5/10 159/163/10 152/159/10
l 53 79
l 63 80
l 75 81
l 78 82
l 79 83
l 80 84
l 81 85
l 82 86
