# Blender v2.92.0 OBJ File: ''
# www.blender.org
mtllib quarto.mtl
o Plane_Plane.001
v 1.339206 0.000000 -0.383953
v -1.552259 0.000000 -1.599804
v -1.552259 0.000000 -0.383953
v -2.189206 -0.000000 1.599804
v -1.555831 -0.000000 2.450374
v -1.552259 -0.000000 1.599804
v -2.192778 -0.000000 2.450374
v -4.926048 -0.000000 1.599804
v -4.929620 -0.000000 2.450374
v -2.192778 -0.000001 3.100374
v -1.555831 -0.000001 3.100374
v 1.339206 -0.000000 1.599804
v 2.195447 -0.000001 2.432576
v 2.199019 -0.000001 1.582006
v 2.199019 -0.000001 -0.401751
v -2.189206 2.100000 -1.599804
v -2.189206 2.600000 -0.383953
v -2.189206 2.100000 -0.383953
v -4.926048 2.100000 1.599804
v -4.929620 2.599998 2.450374
v -4.929620 2.099998 2.450374
v 1.335633 2.099998 3.100374
v 1.335633 2.599998 2.450374
v 1.335633 2.099998 2.450374
v -4.929620 2.099998 3.100374
v -2.192778 2.599998 3.100374
v -2.192778 2.099998 3.100374
v 2.195447 2.599998 2.432576
v 2.195447 2.099998 2.432576
v -2.189206 2.100000 1.599804
v -4.926048 2.600000 1.599805
v 2.199019 2.099999 1.582006
v 2.199019 2.599999 -0.401751
v 2.199019 2.099999 -0.401751
v -4.929620 2.599998 3.100374
v 1.536712 2.162641 -1.599804
v 2.199019 2.599999 -1.617602
v 1.339206 2.600000 -1.599804
v 2.199019 2.599999 1.582006
v -1.536003 2.162641 -1.599804
v -1.552259 2.600000 -1.599804
v -1.555831 2.599998 3.100374
v -1.555831 2.099998 3.100374
v -2.192778 2.599998 2.450374
v -1.555831 2.599998 2.450374
v 1.335633 2.599998 3.100374
v 1.339020 2.599999 1.582006
v 1.339135 2.599999 -0.390716
v -1.552275 2.600000 -0.385509
v -1.552302 2.599999 1.595711
v -1.536003 1.007329 -1.599804
v -1.521082 2.148066 -1.599804
v 2.199019 1.111999 1.582006
v 2.199019 1.111999 -1.617603
v 1.536712 1.007329 -1.599804
v -4.929620 -0.000001 3.100374
v 2.199019 1.111999 -0.401751
v -2.189206 1.112000 1.599804
v -4.926048 1.112000 1.599804
v 1.377410 -0.000000 2.450374
v 2.153670 -0.000001 2.432576
v 1.335633 -0.000001 3.100374
v 1.335633 -0.000000 2.450374
v -4.926048 2.058338 1.641406
v -4.926048 1.086170 1.641406
v -2.189206 1.112000 -1.599804
v -2.189206 1.112000 -0.128767
v -4.926048 -0.000000 1.641406
v -4.929620 -0.000000 2.408772
v -4.929620 2.058337 2.408772
v 2.153670 0.766721 2.432576
v 2.195447 0.783999 2.432576
v 1.377410 2.064739 2.450374
v 2.195447 0.799999 2.432576
v 2.153670 1.090137 2.432576
v 2.195447 1.111999 2.432576
v -4.926048 0.784000 1.599804
v -4.926048 0.779169 1.641406
v -4.926048 0.763586 1.641406
v -2.189206 0.784000 1.599804
v -4.926048 0.800000 1.599804
v 2.199019 0.783999 1.582006
v 2.199019 0.799999 -0.401751
v 2.199019 0.783999 -0.401751
v 2.199019 0.783999 -1.617603
v 2.199019 0.799999 -1.617603
v 2.199019 0.799999 -1.117603
v 2.199019 0.783999 -1.117603
v 2.199019 0.799999 1.582006
v -2.189206 0.784000 -1.599804
v -2.189206 0.800000 -1.099804
v -2.189206 0.800000 -1.599804
v 1.339206 0.000000 -1.599804
v -1.552259 0.784000 -1.599804
v 1.339206 0.784000 -1.599804
v -2.189206 0.000000 -0.383953
v -2.189206 0.784000 -0.048182
v 2.153670 0.782369 2.432576
v 2.199019 -0.000001 -1.617603
v -2.189206 0.800000 1.599804
v 2.199019 2.099999 -1.617603
v -2.189206 2.600000 1.599805
v -2.189206 0.800000 -1.599804
v -2.189206 0.784000 -0.048182
v -2.189206 0.800000 -0.048182
v -1.689206 0.784000 -0.048182
v -1.689206 0.800000 -1.599804
v -1.689206 0.800000 -0.048182
v -1.689206 0.784000 -1.599804
v -2.189206 0.784000 -1.599804
v 1.339206 0.784000 -1.099804
v -1.552259 0.800000 -1.099804
v -1.552259 0.784000 -1.099804
v 1.339206 0.800000 -1.599804
v 1.339206 0.800000 -1.099804
v -1.552259 0.800000 -1.599804
v 1.339206 0.784000 -1.099804
v 1.339206 0.800000 -1.099804
v -2.189206 0.784000 -1.099804
v -2.189206 0.000000 -1.599804
v -2.189206 2.600000 -1.599804
v -2.189206 0.800000 -0.048182
v 2.153670 2.064739 2.432576
v 1.521791 2.148066 -1.599804
v 1.521791 1.021903 -1.704594
v 1.521791 1.021903 -1.599804
v -1.521082 1.021903 -1.599804
v 1.521791 2.148066 -1.704594
v -1.521082 1.021903 -1.704594
v -1.521082 2.148066 -1.704594
v 2.153670 0.766721 2.704590
v 2.153670 -0.000001 2.704590
v 2.153670 0.782369 2.704590
v 2.153670 1.090137 2.704590
v 2.153670 2.064739 2.704590
v 1.377410 2.064739 2.722389
v 1.377410 -0.000000 2.722389
v -5.125928 2.058338 1.641406
v -5.125928 0.763586 1.641406
v -5.129501 2.058337 2.408772
v -5.125928 -0.000000 1.641406
v -5.125928 0.779169 1.641406
v -5.125928 1.086170 1.641406
v -5.129501 -0.000000 2.408772
v -4.929620 2.099998 2.450374
v -4.929620 2.599998 2.450374
v -4.929620 -0.000000 2.450374
v 1.335633 2.599998 2.492194
v 1.335633 2.099998 2.492194
v -2.189206 0.800000 -1.599804
v -2.189206 0.784000 -1.599804
v -2.189206 0.800000 -0.048182
v -2.189206 0.784000 -0.048182
vt 1.000000 0.620000
vt 0.230000 1.000000
vt 0.230000 0.620000
vt 0.000000 0.000000
vt 0.230000 0.000000
vt 0.230000 0.000000
vt 0.000000 0.000000
vt 0.000000 0.000000
vt 0.000000 0.000000
vt 0.000000 0.000000
vt 0.230000 0.000000
vt 1.000000 0.000000
vt 1.000000 0.000000
vt 1.000000 0.000000
vt 1.000000 0.620000
vt 0.000000 1.000000
vt 0.000000 0.620000
vt 0.000000 0.620000
vt 0.000000 0.000000
vt 0.000000 0.000000
vt 0.000000 0.000000
vt 1.000000 0.000000
vt 1.000000 0.000000
vt 1.000000 0.000000
vt 0.000000 0.000000
vt 0.000000 0.000000
vt 0.000000 0.000000
vt 1.000000 0.000000
vt 1.000000 0.000000
vt 0.000000 0.000000
vt 0.000000 0.000000
vt 1.000000 0.000000
vt 1.000000 0.620000
vt 1.000000 0.620000
vt 0.000000 0.000000
vt 1.000000 1.000000
vt 1.000000 1.000000
vt 1.000000 1.000000
vt 1.000000 0.000000
vt 0.230000 1.000000
vt 0.230000 1.000000
vt 0.230000 0.000000
vt 0.230000 0.000000
vt 0.000000 0.000000
vt 0.230000 0.000000
vt 1.000000 0.000000
vt 0.000000 0.000000
vt 0.620000 0.620000
vt 0.142600 0.620000
vt 0.000000 0.000000
vt 0.230000 1.000000
vt 0.230000 1.000000
vt 1.000000 0.000000
vt 1.000000 1.000000
vt 1.000000 1.000000
vt 0.000000 0.000000
vt 1.000000 0.620000
vt 0.000000 0.000000
vt 0.000000 0.000000
vt 1.000000 0.000000
vt 1.000000 0.000000
vt 1.000000 0.000000
vt 1.000000 0.000000
vt 0.000000 0.000000
vt 0.000000 0.000000
vt 0.000000 1.000000
vt 0.000000 0.620000
vt 0.000000 0.000000
vt 0.000000 0.000000
vt 0.000000 0.000000
vt 1.000000 0.000000
vt 1.000000 0.000000
vt 1.000000 0.000000
vt 1.000000 0.000000
vt 1.000000 0.000000
vt 1.000000 0.000000
vt 0.000000 0.000000
vt 0.000000 0.000000
vt 0.000000 0.000000
vt 0.000000 0.000000
vt 0.000000 0.000000
vt 1.000000 0.000000
vt 1.000000 0.620000
vt 1.000000 0.620000
vt 1.000000 1.000000
vt 1.000000 1.000000
vt 1.000000 1.000000
vt 1.000000 1.000000
vt 1.000000 0.000000
vt 0.000000 0.000000
vt 0.000000 0.000000
vt 0.000000 0.000000
vt 1.000000 1.000000
vt 0.230000 1.000000
vt 1.000000 1.000000
vt 0.000000 0.620000
vt 0.000000 1.000000
vt 0.000000 0.620000
vt 1.000000 0.000000
vt 1.000000 1.000000
vt 0.000000 0.000000
vt 1.000000 1.000000
vt 0.000000 0.000000
vt 0.000000 0.000000
vt 0.000000 0.000000
vt 0.000000 0.000000
vt 0.000000 0.000000
vt 0.000000 0.000000
vt 0.000000 0.000000
vt 0.000000 0.000000
vt 0.000000 0.000000
vt 1.000000 1.000000
vt 0.230000 1.000000
vt 0.230000 1.000000
vt 1.000000 1.000000
vt 1.000000 1.000000
vt 0.000000 1.000000
vt 0.230000 1.000000
vt 1.000000 1.000000
vt 1.000000 1.000000
vt 0.000000 1.000000
vt 0.000000 1.000000
vt 0.000000 1.000000
vt 0.000000 1.000000
vt 0.000000 0.620000
vt 1.000000 0.000000
vt 1.000000 1.000000
vt 1.000000 1.000000
vt 1.000000 1.000000
vt 0.230000 1.000000
vt 1.000000 1.000000
vt 0.230000 1.000000
vt 0.230000 1.000000
vt 1.000000 0.000000
vt 1.000000 0.000000
vt 1.000000 0.000000
vt 1.000000 0.000000
vt 1.000000 0.000000
vt 1.000000 0.000000
vt 1.000000 0.000000
vt 0.000000 0.000000
vt 0.000000 0.000000
vt 0.000000 0.000000
vt 0.000000 0.000000
vt 0.000000 0.000000
vt 0.000000 0.000000
vt 0.000000 0.000000
vt 0.000000 0.000000
vt 0.000000 0.000000
vt 0.000000 0.000000
vt 1.000000 0.000000
vt 1.000000 0.000000
vt 0.000000 0.000000
vn 0.0000 1.0000 0.0000
vn 1.0000 0.0000 0.0000
vn 1.0000 0.0010 0.0032
vn 1.0000 0.0000 0.0042
vn 1.0000 0.0028 0.0033
vn -1.0000 0.0000 0.0000
vn 0.0000 0.0000 -1.0000
vn -0.0207 0.0000 -0.9998
vn 0.0000 -0.0000 1.0000
vn 0.0272 -0.0004 0.9996
vn 0.0214 0.0083 0.9997
vn 0.0207 0.0093 0.9997
vn -1.0000 0.0000 -0.0042
vn -1.0000 0.0000 -0.0021
vn 0.0000 -1.0000 -0.0000
vn -1.0000 -0.0000 -0.0041
vn 0.0269 -0.0000 0.9996
vn 0.0000 -1.0000 0.0001
vn 1.0000 -0.0024 0.0024
vn 0.0000 0.0000 0.0000
vn 1.0000 -0.0023 0.0023
vn -0.0207 -0.0245 -0.9995
vn 0.0207 -0.0000 0.9998
vn 0.0207 -0.0197 0.9996
vn 0.0000 1.0000 -0.0001
vn -0.0229 0.0271 -0.9994
usemtl None
s 1
f 1/1/1 2/2/1 3/3/1
f 4/4/1 5/5/1 6/6/1
f 7/7/1 8/8/1 9/9/1
f 9/9/1 10/10/1 7/7/1
f 7/7/1 11/11/1 5/5/1
f 12/12/1 13/13/1 14/14/1
f 1/1/1 14/14/1 15/15/1
f 16/16/2 17/17/2 18/18/2
f 19/19/3 20/20/4 21/21/5
f 22/22/6 23/23/6 24/24/6
f 25/25/7 26/26/7 27/27/7
f 24/24/8 28/28/8 29/29/8
f 30/30/9 31/31/9 19/19/9
f 32/32/6 33/33/6 34/34/6
f 21/21/2 35/35/2 25/25/2
f 36/36/10 37/37/11 38/38/12
f 32/32/6 28/28/13 39/39/14
f 40/40/9 38/38/9 41/41/9
f 27/27/7 42/42/7 43/43/7
f 31/31/15 44/44/15 20/20/15
f 35/35/15 44/44/15 26/26/15
f 45/45/15 46/46/15 42/42/15
f 28/28/15 47/47/15 39/39/15
f 33/33/15 38/38/15 37/37/15
f 41/41/15 48/48/15 49/49/15
f 50/50/15 23/23/15 45/45/15
f 10/10/7 43/43/7 11/11/7
f 51/51/9 52/52/9 40/40/9
f 53/53/16 29/29/13 32/32/6
f 54/54/17 36/36/10 55/55/17
f 9/9/2 25/25/2 56/56/2
f 57/57/6 32/32/6 34/34/6
f 58/58/9 19/19/9 59/59/9
f 13/13/18 60/60/18 61/61/18
f 56/56/7 27/27/7 10/10/7
f 62/62/6 24/24/6 63/63/6
f 59/59/2 64/64/19 65/65/2
f 66/66/2 18/18/2 67/67/2
f 9/9/20 8/8/20 68/68/20 69/69/20
f 9/9/2 70/70/21 21/21/5
f 21/21/5 64/64/19 19/19/3
f 13/13/7 71/71/7 72/72/7
f 29/29/22 73/73/22 24/24/22
f 63/63/7 73/73/7 60/60/7
f 74/74/7 75/75/7 76/76/7
f 77/77/2 78/78/2 79/79/2
f 80/80/9 81/81/9 77/77/9
f 82/82/14 83/83/6 84/84/6
f 85/85/2 86/86/2 87/87/2 88/88/2
f 82/82/14 74/74/13 89/89/14
f 90/90/6 91/91/6 92/92/6
f 93/93/9 94/94/9 2/2/9
f 14/14/14 72/72/13 82/82/14
f 93/93/23 85/85/23 95/95/23
f 14/14/14 84/84/6 15/15/6
f 4/4/9 77/77/9 8/8/9
f 8/8/2 79/79/2 68/68/2
f 96/96/2 90/97/2 97/98/2
f 72/72/7 98/99/7 74/74/7
f 4/4/2 97/98/2 80/80/2
f 15/15/6 85/85/6 99/100/6
f 84/84/6 86/86/6 85/85/6
f 97/98/2 100/101/2 80/80/2
f 67/67/2 30/30/2 58/58/2
f 57/57/6 101/102/6 54/54/6
f 49/49/15 47/47/15 50/50/15
f 39/39/15 48/48/15 33/33/15
f 34/34/6 37/37/6 101/102/6
f 18/18/2 102/103/2 30/30/2
f 93/93/1 15/15/1 99/100/1
f 12/12/1 3/3/1 6/6/1
f 103/104/6 104/105/6 105/106/6
f 106/107/2 107/108/2 108/109/2
f 105/106/1 107/108/1 103/104/1
f 103/104/7 109/110/7 110/111/7
f 110/111/15 106/107/15 104/105/15
f 105/106/9 104/105/9 106/107/9 108/109/9
f 111/112/9 112/113/9 113/114/9
f 95/95/15 113/114/15 94/94/15
f 95/95/2 114/115/2 115/116/2 111/112/2
f 92/117/1 112/113/1 116/118/1
f 117/119/23 88/88/23 87/87/23 118/120/23
f 95/95/15 88/88/15 117/119/15
f 95/95/6 118/120/6 114/115/6
f 114/115/1 87/87/1 86/86/1
f 116/118/1 115/116/1 114/115/1
f 94/94/15 119/121/15 90/97/15
f 113/114/9 91/122/9 119/121/9
f 6/6/1 96/96/1 4/4/1
f 17/17/15 50/50/15 102/103/15
f 2/2/9 90/97/9 120/123/9
f 66/66/9 40/40/9 16/16/9
f 11/11/7 22/22/7 62/62/7
f 102/103/15 45/45/15 44/44/15
f 121/124/15 49/49/15 17/17/15
f 44/44/15 42/42/15 26/26/15
f 43/43/7 46/46/7 22/22/7
f 40/40/9 121/124/9 16/16/9
f 5/5/1 62/62/1 63/63/1
f 6/6/1 63/63/1 12/12/1
f 3/3/1 120/123/1 96/96/1
f 92/117/9 51/51/9 66/66/9
f 83/83/6 54/54/6 86/86/6
f 122/125/2 58/58/2 100/101/2
f 76/76/7 123/126/7 29/29/7
f 92/117/2 67/67/2 122/125/2
f 81/81/2 65/65/2 78/78/2
f 100/101/9 59/59/9 81/81/9
f 89/89/14 57/57/6 83/83/6
f 86/86/24 55/55/24 114/115/24
f 89/89/14 76/76/13 53/53/16
f 114/115/9 51/51/9 116/118/9
f 124/127/6 125/128/6 126/129/6
f 40/40/9 124/127/9 36/36/9
f 55/55/9 127/130/9 51/51/9
f 36/36/9 126/129/9 55/55/9
f 52/52/15 128/131/15 124/127/15
f 126/129/1 129/132/1 127/130/1
f 127/130/2 130/133/2 52/52/2
f 61/61/6 131/134/6 71/71/6
f 60/60/1 132/135/1 61/61/1
f 71/71/6 133/136/6 98/99/6
f 98/99/6 134/137/6 75/75/6
f 73/73/15 135/138/15 136/139/15
f 73/73/2 137/140/2 60/60/2
f 75/75/6 135/138/6 123/126/6
f 70/70/15 138/141/15 64/64/15
f 78/78/9 139/142/9 79/79/9
f 69/69/7 140/143/7 70/70/7
f 79/79/9 141/144/9 68/68/9
f 65/65/9 142/145/9 78/78/9
f 64/64/9 143/146/9 65/65/9
f 69/69/1 141/144/1 144/147/1
f 20/20/9 21/21/9 145/148/9 146/149/9
f 9/9/9 21/21/9 145/148/9 147/150/9
f 24/24/6 148/151/6 23/23/6
f 63/63/6 149/152/6 24/24/6
f 1/1/1 93/93/1 2/2/1
f 4/4/1 7/7/1 5/5/1
f 7/7/1 4/4/1 8/8/1
f 9/9/1 56/56/1 10/10/1
f 7/7/1 10/10/1 11/11/1
f 12/12/1 63/63/1 13/13/1
f 1/1/1 12/12/1 14/14/1
f 16/16/2 121/124/2 17/17/2
f 19/19/3 31/31/4 20/20/4
f 22/22/6 46/46/6 23/23/6
f 25/25/7 35/35/7 26/26/7
f 24/24/8 23/23/8 28/28/8
f 30/30/9 102/103/9 31/31/9
f 32/32/6 39/39/14 33/33/6
f 21/21/2 20/20/2 35/35/2
f 36/36/10 101/102/17 37/37/11
f 32/32/6 29/29/13 28/28/13
f 40/40/9 36/36/9 38/38/9
f 27/27/7 26/26/7 42/42/7
f 31/31/15 102/103/15 44/44/15
f 35/35/15 20/20/15 44/44/15
f 45/45/15 23/23/15 46/46/15
f 28/28/15 23/23/15 47/47/15
f 33/33/15 48/48/15 38/38/15
f 41/41/15 38/38/15 48/48/15
f 50/50/15 47/47/15 23/23/15
f 10/10/7 27/27/7 43/43/7
f 51/51/9 127/130/9 52/52/9
f 53/53/16 76/76/13 29/29/13
f 54/54/17 101/102/17 36/36/10
f 9/9/2 21/21/2 25/25/2
f 57/57/6 53/53/16 32/32/6
f 58/58/9 30/30/9 19/19/9
f 13/13/1 63/63/1 60/60/25
f 56/56/7 25/25/7 27/27/7
f 62/62/6 22/22/6 24/24/6
f 59/59/2 19/19/3 64/64/19
f 66/66/2 16/16/2 18/18/2
f 9/9/2 69/69/2 70/70/2
f 21/21/5 70/70/21 64/64/19
f 13/13/7 61/61/7 71/71/7
f 29/29/26 123/126/26 73/73/26
f 63/63/7 24/24/7 73/73/7
f 74/74/7 98/99/7 75/75/7
f 77/77/2 81/81/2 78/78/2
f 80/80/9 100/101/9 81/81/9
f 82/82/14 89/89/14 83/83/6
f 82/82/14 72/72/13 74/74/13
f 90/90/6 119/153/6 91/91/6
f 93/93/9 95/95/9 94/94/9
f 14/14/14 13/13/13 72/72/13
f 93/93/23 99/100/23 85/85/23
f 14/14/14 82/82/14 84/84/6
f 4/4/9 80/80/9 77/77/9
f 8/8/2 77/77/2 79/79/2
f 96/96/2 120/123/2 90/97/2
f 72/72/7 71/71/7 98/99/7
f 4/4/2 96/96/2 97/98/2
f 15/15/6 84/84/6 85/85/6
f 84/84/6 83/83/6 86/86/6
f 97/98/2 122/125/2 100/101/2
f 67/67/2 18/18/2 30/30/2
f 57/57/6 34/34/6 101/102/6
f 49/49/15 48/48/15 47/47/15
f 39/39/15 47/47/15 48/48/15
f 34/34/6 33/33/6 37/37/6
f 18/18/2 17/17/2 102/103/2
f 93/93/1 1/1/1 15/15/1
f 12/12/1 1/1/1 3/3/1
f 103/104/6 110/111/6 104/105/6
f 106/107/2 109/110/2 107/108/2
f 105/106/1 108/109/1 107/108/1
f 103/104/7 107/108/7 109/110/7
f 110/111/15 109/110/15 106/107/15
f 111/112/9 115/116/9 112/113/9
f 95/95/15 111/112/15 113/114/15
f 92/117/1 91/122/1 112/113/1
f 95/95/15 85/85/15 88/88/15
f 95/95/6 117/119/6 118/120/6
f 114/115/1 118/120/1 87/87/1
f 116/118/1 112/113/1 115/116/1
f 94/94/15 113/114/15 119/121/15
f 113/114/9 112/113/9 91/122/9
f 6/6/1 3/3/1 96/96/1
f 17/17/15 49/49/15 50/50/15
f 2/2/9 94/94/9 90/97/9
f 66/66/9 51/51/9 40/40/9
f 11/11/7 43/43/7 22/22/7
f 102/103/15 50/50/15 45/45/15
f 121/124/15 41/41/15 49/49/15
f 44/44/15 45/45/15 42/42/15
f 43/43/7 42/42/7 46/46/7
f 40/40/9 41/41/9 121/124/9
f 5/5/1 11/11/1 62/62/1
f 6/6/1 5/5/1 63/63/1
f 3/3/1 2/2/1 120/123/1
f 92/117/9 116/118/9 51/51/9
f 83/83/6 57/57/6 54/54/6
f 122/125/2 67/67/2 58/58/2
f 76/76/7 75/75/7 123/126/7
f 92/117/2 66/66/2 67/67/2
f 81/81/2 59/59/2 65/65/2
f 100/101/9 58/58/9 59/59/9
f 89/89/14 53/53/16 57/57/6
f 86/86/17 54/54/17 55/55/17
f 89/89/14 74/74/13 76/76/13
f 114/115/9 55/55/9 51/51/9
f 124/127/6 128/131/6 125/128/6
f 40/40/9 52/52/9 124/127/9
f 55/55/9 126/129/9 127/130/9
f 36/36/9 124/127/9 126/129/9
f 52/52/15 130/133/15 128/131/15
f 126/129/1 125/128/1 129/132/1
f 127/130/2 129/132/2 130/133/2
f 61/61/6 132/135/6 131/134/6
f 60/60/1 137/140/1 132/135/1
f 71/71/6 131/134/6 133/136/6
f 98/99/6 133/136/6 134/137/6
f 73/73/15 123/126/15 135/138/15
f 73/73/2 136/139/2 137/140/2
f 75/75/6 134/137/6 135/138/6
f 70/70/15 140/143/15 138/141/15
f 78/78/9 142/145/9 139/142/9
f 69/69/7 144/147/7 140/143/7
f 79/79/9 139/142/9 141/144/9
f 65/65/9 143/146/9 142/145/9
f 64/64/9 138/141/9 143/146/9
f 69/69/1 68/68/1 141/144/1
l 152 105
l 97 153
l 90 151
l 122 152
l 92 150
l 151 110
l 150 103
l 153 104
